# xmcd
#
# Track frame offsets:
#	150
#	17178
#	33674
#	48315
#	63467
#	78710
#	101999
#	117555
#	131873
#	149063
#	163045
#	179980
#	193889
#	211834
#	228355
#	243053
#	256221
#
# Disc length: 3616 seconds
#
# Revision: 1
# Processed by: cddbd v1.5.2PL0 Copyright (c) Steve Scherf et al.
# Submitted via: audiograbber 1.83.01
#
DISCID=0b0e1e11
DTITLE=Chartbusters - Esp453-02
DYEAR=1900
DGENRE=
TTITLE0=Jackson, Alan - Here In The Real World
TTITLE1=Alabama - Down Home
TTITLE2=Loveless, Patty - I'm That Kind Of Girl
TTITLE3=Jackson, Alan - I'd Love You All Over Again
TTITLE4=Diamond rio - Meet In The Middle
TTITLE5=The Judds - Love Can Build A Bridge
TTITLE6=Reid, Mike - Walk On Faith
TTITLE7=Strait, George - You Know Me Better Than That
TTITLE8=McEntire, Reba - For My Broken Heart
TTITLE9=Brooks and Dunn - Brand New Man
TTITLE10=Stone, Doug - In A Different Light
TTITLE11=Morgan, Lorrie - Except For Monday
TTITLE12=Tritt, Travis - Anymore
TTITLE13=Dean, Billy - Only Here For A Little While
TTITLE14=McEntire, Reba - Walk On
TTITLE15=Strait, George - If I Know Me
TTITLE16=Diamond Rio - Mirror Mirror
EXTD=
EXTT0=
EXTT1=
EXTT2=
EXTT3=
EXTT4=
EXTT5=
EXTT6=
EXTT7=
EXTT8=
EXTT9=
EXTT10=
EXTT11=
EXTT12=
EXTT13=
EXTT14=
EXTT15=
EXTT16=
PLAYORDER=
